<?xml version="1.0" standalone="no"?><svg xmlns:xlink="http://www.w3.org/1999/xlink" xmlns="http://www.w3.org/2000/svg" viewBox="0 0 1000 562.5026674064275" preserveAspectRatio="xMaxYMax slice"><g transform="scale(0.8535700567624088)"><rect x="0" y="0" width="1171.5555555555557" height="659" fill="#ffffff"/><g transform="translate(395.4,29.29) scale(0.732) rotate(0)"><path d="M10 5L5 0L0 5L5 10L0 15L5 20L10 15L15 20L20 15L15 10L20 5L15 0L10 5Z" fill="#d1f7f4"/></g><circle cx="915.2800000000001" cy="36.61" r="7.32" fill="#7be8e0"/><g transform="translate(1127.62,29.29) scale(0.732) rotate(0)"><path d="M10 5L5 0L0 5L5 10L0 15L5 20L10 15L15 20L20 15L15 10L20 5L15 0L10 5Z" fill="#92ece5"/></g><circle cx="256.28000000000003" cy="109.83000000000001" r="7.32" fill="#3cded1"/><g transform="translate(981.18,102.51) scale(0.732) rotate(0)"><path d="M10 5L5 0L0 5L5 10L0 15L5 20L10 15L15 20L20 15L15 10L20 5L15 0L10 5Z" fill="#d0f7f4"/></g><rect x="1127.6222222222223" y="102.51111111111112" width="14.644444444444446" height="14.644444444444446" fill="#ffffff"/><g transform="translate(1134.94,102.51) scale(0.366) rotate(0)"><path fill-rule="evenodd" clip-rule="evenodd" d="M10 20C15.5228 20 20 15.5228 20 10C20 4.47715 15.5228 0 10 0C4.47715 0 0 4.47715 0 10C0 15.5228 4.47715 20 10 20ZM10 17C13.866 17 17 13.866 17 10C17 6.13401 13.866 3 10 3C6.13401 3 3 6.13401 3 10C3 13.866 6.13401 17 10 17Z" fill="#aaf0eb"/></g><circle cx="1138.6000000000001" cy="113.49" r="3.66" fill="#3addd0"/><circle cx="36.61" cy="183.04999999999998" r="7.32" fill="#e7c2ff"/><g transform="translate(175.73,175.73) scale(0.732) rotate(0)"><path d="M10 5L5 0L0 5L5 10L0 15L5 20L10 15L15 20L20 15L15 10L20 5L15 0L10 5Z" fill="#ce84ff"/></g><g transform="translate(248.96,175.73) scale(0.732) rotate(0)"><path fill-rule="evenodd" clip-rule="evenodd" d="M10 20C15.5228 20 20 15.5228 20 10C20 4.47715 15.5228 0 10 0C4.47715 0 0 4.47715 0 10C0 15.5228 4.47715 20 10 20ZM10 17C13.866 17 17 13.866 17 10C17 6.13401 13.866 3 10 3C6.13401 3 3 6.13401 3 10C3 13.866 6.13401 17 10 17Z" fill="#f1dcff"/></g><g transform="translate(322.18,175.73) scale(0.732) rotate(0)"><path fill-rule="evenodd" clip-rule="evenodd" d="M10 20C15.5228 20 20 15.5228 20 10C20 4.47715 15.5228 0 10 0C4.47715 0 0 4.47715 0 10C0 15.5228 4.47715 20 10 20ZM10 17C13.866 17 17 13.866 17 10C17 6.13401 13.866 3 10 3C6.13401 3 3 6.13401 3 10C3 13.866 6.13401 17 10 17Z" fill="#f7ecff"/></g><circle cx="622.3900000000001" cy="183.04999999999998" r="7.32" fill="#61e4d9"/><g transform="translate(761.51,175.73) scale(0.732) rotate(0)"><path d="M10 5L5 0L0 5L5 10L0 15L5 20L10 15L15 20L20 15L15 10L20 5L15 0L10 5Z" fill="#46dfd3"/></g><g transform="translate(834.73,175.73) scale(0.732) rotate(0)"><path d="M10 5L5 0L0 5L5 10L0 15L5 20L10 15L15 20L20 15L15 10L20 5L15 0L10 5Z" fill="#fdffff"/></g><g transform="translate(981.18,175.73) scale(0.732) rotate(0)"><path fill-rule="evenodd" clip-rule="evenodd" d="M10 20C15.5228 20 20 15.5228 20 10C20 4.47715 15.5228 0 10 0C4.47715 0 0 4.47715 0 10C0 15.5228 4.47715 20 10 20ZM10 17C13.866 17 17 13.866 17 10C17 6.13401 13.866 3 10 3C6.13401 3 3 6.13401 3 10C3 13.866 6.13401 17 10 17Z" fill="#c46bff"/></g><g transform="translate(1127.62,175.73) scale(0.732) rotate(0)"><path fill-rule="evenodd" clip-rule="evenodd" d="M10 20C15.5228 20 20 15.5228 20 10C20 4.47715 15.5228 0 10 0C4.47715 0 0 4.47715 0 10C0 15.5228 4.47715 20 10 20ZM10 17C13.866 17 17 13.866 17 10C17 6.13401 13.866 3 10 3C6.13401 3 3 6.13401 3 10C3 13.866 6.13401 17 10 17Z" fill="#faf2ff"/></g><g transform="translate(29.29,248.96) scale(0.732) rotate(0)"><path fill-rule="evenodd" clip-rule="evenodd" d="M10 20C15.5228 20 20 15.5228 20 10C20 4.47715 15.5228 0 10 0C4.47715 0 0 4.47715 0 10C0 15.5228 4.47715 20 10 20ZM10 17C13.866 17 17 13.866 17 10C17 6.13401 13.866 3 10 3C6.13401 3 3 6.13401 3 10C3 13.866 6.13401 17 10 17Z" fill="#dca7ff"/></g><g transform="translate(761.51,248.96) scale(0.732) rotate(0)"><path d="M10 5L5 0L0 5L5 10L0 15L5 20L10 15L15 20L20 15L15 10L20 5L15 0L10 5Z" fill="#cc80ff"/></g><rect x="907.9555555555556" y="248.95555555555558" width="14.644444444444446" height="14.644444444444446" fill="#ffffff"/><g transform="translate(1127.62,248.96) scale(0.732) rotate(0)"><path fill-rule="evenodd" clip-rule="evenodd" d="M10 20C15.5228 20 20 15.5228 20 10C20 4.47715 15.5228 0 10 0C4.47715 0 0 4.47715 0 10C0 15.5228 4.47715 20 10 20ZM10 17C13.866 17 17 13.866 17 10C17 6.13401 13.866 3 10 3C6.13401 3 3 6.13401 3 10C3 13.866 6.13401 17 10 17Z" fill="#57e2d7"/></g><circle cx="475.94" cy="329.5" r="7.32" fill="#e5fbf9"/><g transform="translate(541.84,322.18) scale(0.732) rotate(0)"><path fill-rule="evenodd" clip-rule="evenodd" d="M10 20C15.5228 20 20 15.5228 20 10C20 4.47715 15.5228 0 10 0C4.47715 0 0 4.47715 0 10C0 15.5228 4.47715 20 10 20ZM10 17C13.866 17 17 13.866 17 10C17 6.13401 13.866 3 10 3C6.13401 3 3 6.13401 3 10C3 13.866 6.13401 17 10 17Z" fill="#f0dbff"/></g><circle cx="768.83" cy="329.5" r="7.32" fill="#c9f6f2"/><rect x="834.7333333333335" y="322.1777777777778" width="14.644444444444446" height="14.644444444444446" fill="#ffffff"/><circle cx="838.39" cy="325.84000000000003" r="3.66" fill="#cc7eff"/><g transform="translate(842.06,329.5) scale(0.366) rotate(0)"><path fill-rule="evenodd" clip-rule="evenodd" d="M10 20C15.5228 20 20 15.5228 20 10C20 4.47715 15.5228 0 10 0C4.47715 0 0 4.47715 0 10C0 15.5228 4.47715 20 10 20ZM10 17C13.866 17 17 13.866 17 10C17 6.13401 13.866 3 10 3C6.13401 3 3 6.13401 3 10C3 13.866 6.13401 17 10 17Z" fill="#4be0d4"/></g><g transform="translate(1054.4,322.18) scale(0.732) rotate(0)"><path d="M10 5L5 0L0 5L5 10L0 15L5 20L10 15L15 20L20 15L15 10L20 5L15 0L10 5Z" fill="#aef1ec"/></g><circle cx="36.61" cy="402.71999999999997" r="7.32" fill="#dbf9f6"/><circle cx="109.83000000000001" cy="402.71999999999997" r="7.32" fill="#bf5eff"/><circle cx="256.28000000000003" cy="402.71999999999997" r="7.32" fill="#b1f2ec"/><g transform="translate(322.18,395.4) scale(0.732) rotate(0)"><path d="M10 5L5 0L0 5L5 10L0 15L5 20L10 15L15 20L20 15L15 10L20 5L15 0L10 5Z" fill="#cc7fff"/></g><g transform="translate(395.4,395.4) scale(0.732) rotate(0)"><path d="M10 5L5 0L0 5L5 10L0 15L5 20L10 15L15 20L20 15L15 10L20 5L15 0L10 5Z" fill="#7ce9e0"/></g><g transform="translate(468.62,395.4) scale(0.732) rotate(0)"><path d="M10 5L5 0L0 5L5 10L0 15L5 20L10 15L15 20L20 15L15 10L20 5L15 0L10 5Z" fill="#64e5da"/></g><g transform="translate(907.96,395.4) scale(0.732) rotate(0)"><path fill-rule="evenodd" clip-rule="evenodd" d="M10 20C15.5228 20 20 15.5228 20 10C20 4.47715 15.5228 0 10 0C4.47715 0 0 4.47715 0 10C0 15.5228 4.47715 20 10 20ZM10 17C13.866 17 17 13.866 17 10C17 6.13401 13.866 3 10 3C6.13401 3 3 6.13401 3 10C3 13.866 6.13401 17 10 17Z" fill="#c163ff"/></g><g transform="translate(1127.62,395.4) scale(0.732) rotate(0)"><path fill-rule="evenodd" clip-rule="evenodd" d="M10 20C15.5228 20 20 15.5228 20 10C20 4.47715 15.5228 0 10 0C4.47715 0 0 4.47715 0 10C0 15.5228 4.47715 20 10 20ZM10 17C13.866 17 17 13.866 17 10C17 6.13401 13.866 3 10 3C6.13401 3 3 6.13401 3 10C3 13.866 6.13401 17 10 17Z" fill="#97ede6"/></g><circle cx="36.61" cy="475.94" r="7.32" fill="#65e5db"/><g transform="translate(248.96,468.62) scale(0.732) rotate(0)"><path fill-rule="evenodd" clip-rule="evenodd" d="M10 20C15.5228 20 20 15.5228 20 10C20 4.47715 15.5228 0 10 0C4.47715 0 0 4.47715 0 10C0 15.5228 4.47715 20 10 20ZM10 17C13.866 17 17 13.866 17 10C17 6.13401 13.866 3 10 3C6.13401 3 3 6.13401 3 10C3 13.866 6.13401 17 10 17Z" fill="#e0faf8"/></g><circle cx="402.71999999999997" cy="475.94" r="7.32" fill="#c164ff"/><circle cx="695.61" cy="475.94" r="7.32" fill="#d08aff"/><rect x="907.9555555555556" y="468.62222222222226" width="14.644444444444446" height="14.644444444444446" fill="#ffffff"/><g transform="translate(907.96,475.94) scale(0.366) rotate(0)"><path d="M10 5L5 0L0 5L5 10L0 15L5 20L10 15L15 20L20 15L15 10L20 5L15 0L10 5Z" fill="#f4e3ff"/></g><circle cx="918.9399999999999" cy="479.6" r="3.66" fill="#e0b2ff"/><g transform="translate(981.18,468.62) scale(0.732) rotate(0)"><path fill-rule="evenodd" clip-rule="evenodd" d="M10 20C15.5228 20 20 15.5228 20 10C20 4.47715 15.5228 0 10 0C4.47715 0 0 4.47715 0 10C0 15.5228 4.47715 20 10 20ZM10 17C13.866 17 17 13.866 17 10C17 6.13401 13.866 3 10 3C6.13401 3 3 6.13401 3 10C3 13.866 6.13401 17 10 17Z" fill="#d9a0ff"/></g><g transform="translate(1054.4,468.62) scale(0.732) rotate(0)"><path d="M10 5L5 0L0 5L5 10L0 15L5 20L10 15L15 20L20 15L15 10L20 5L15 0L10 5Z" fill="#2cdbcd"/></g><g transform="translate(29.29,541.84) scale(0.732) rotate(0)"><path fill-rule="evenodd" clip-rule="evenodd" d="M10 20C15.5228 20 20 15.5228 20 10C20 4.47715 15.5228 0 10 0C4.47715 0 0 4.47715 0 10C0 15.5228 4.47715 20 10 20ZM10 17C13.866 17 17 13.866 17 10C17 6.13401 13.866 3 10 3C6.13401 3 3 6.13401 3 10C3 13.866 6.13401 17 10 17Z" fill="#41dfd2"/></g><g transform="translate(102.51,541.84) scale(0.732) rotate(0)"><path d="M10 5L5 0L0 5L5 10L0 15L5 20L10 15L15 20L20 15L15 10L20 5L15 0L10 5Z" fill="#e1b5ff"/></g><rect x="688.2888888888889" y="541.8444444444445" width="14.644444444444446" height="14.644444444444446" fill="#ffffff"/><g transform="translate(695.61,541.84) scale(0.366) rotate(0)"><path d="M10 5L5 0L0 5L5 10L0 15L5 20L10 15L15 20L20 15L15 10L20 5L15 0L10 5Z" fill="#ebcdff"/></g><circle cx="842.0500000000001" cy="549.1600000000001" r="7.32" fill="#bf60ff"/><rect x="907.9555555555556" y="541.8444444444445" width="14.644444444444446" height="14.644444444444446" fill="#ffffff"/><g transform="translate(907.96,541.84) scale(0.366) rotate(0)"><path d="M10 5L5 0L0 5L5 10L0 15L5 20L10 15L15 20L20 15L15 10L20 5L15 0L10 5Z" fill="#f8edff"/></g><g transform="translate(907.96,549.17) scale(0.366) rotate(0)"><path d="M10 5L5 0L0 5L5 10L0 15L5 20L10 15L15 20L20 15L15 10L20 5L15 0L10 5Z" fill="#d18dff"/></g><circle cx="988.5" cy="549.1600000000001" r="7.32" fill="#d9f8f6"/><rect x="102.51111111111112" y="615.0666666666667" width="14.644444444444446" height="14.644444444444446" fill="#ffffff"/><g transform="translate(102.51,615.07) scale(0.366) rotate(0)"><path fill-rule="evenodd" clip-rule="evenodd" d="M10 20C15.5228 20 20 15.5228 20 10C20 4.47715 15.5228 0 10 0C4.47715 0 0 4.47715 0 10C0 15.5228 4.47715 20 10 20ZM10 17C13.866 17 17 13.866 17 10C17 6.13401 13.866 3 10 3C6.13401 3 3 6.13401 3 10C3 13.866 6.13401 17 10 17Z" fill="#cb7cff"/></g><circle cx="106.17" cy="626.05" r="3.66" fill="#46dfd3"/><rect x="175.73333333333335" y="615.0666666666667" width="14.644444444444446" height="14.644444444444446" fill="#ffffff"/><g transform="translate(183.06,622.39) scale(0.366) rotate(0)"><path fill-rule="evenodd" clip-rule="evenodd" d="M10 20C15.5228 20 20 15.5228 20 10C20 4.47715 15.5228 0 10 0C4.47715 0 0 4.47715 0 10C0 15.5228 4.47715 20 10 20ZM10 17C13.866 17 17 13.866 17 10C17 6.13401 13.866 3 10 3C6.13401 3 3 6.13401 3 10C3 13.866 6.13401 17 10 17Z" fill="#bf5eff"/></g><g transform="translate(322.18,615.07) scale(0.732) rotate(0)"><path d="M10 5L5 0L0 5L5 10L0 15L5 20L10 15L15 20L20 15L15 10L20 5L15 0L10 5Z" fill="#faf1ff"/></g><g transform="translate(468.62,615.07) scale(0.732) rotate(0)"><path fill-rule="evenodd" clip-rule="evenodd" d="M10 20C15.5228 20 20 15.5228 20 10C20 4.47715 15.5228 0 10 0C4.47715 0 0 4.47715 0 10C0 15.5228 4.47715 20 10 20ZM10 17C13.866 17 17 13.866 17 10C17 6.13401 13.866 3 10 3C6.13401 3 3 6.13401 3 10C3 13.866 6.13401 17 10 17Z" fill="#5de3d8"/></g><g transform="translate(615.07,615.07) scale(0.732) rotate(0)"><path d="M10 5L5 0L0 5L5 10L0 15L5 20L10 15L15 20L20 15L15 10L20 5L15 0L10 5Z" fill="#c874ff"/></g><g transform="translate(981.18,615.07) scale(0.732) rotate(0)"><path fill-rule="evenodd" clip-rule="evenodd" d="M10 20C15.5228 20 20 15.5228 20 10C20 4.47715 15.5228 0 10 0C4.47715 0 0 4.47715 0 10C0 15.5228 4.47715 20 10 20ZM10 17C13.866 17 17 13.866 17 10C17 6.13401 13.866 3 10 3C6.13401 3 3 6.13401 3 10C3 13.866 6.13401 17 10 17Z" fill="#73e7de"/></g></g></svg>